/* XPM */
static char *dummy[]={
"32 32 5 1",
". c #000000",
"a c #00ff00",
"b c #ff0000",
"# c #ffff00",
"c c #ffffff",
"................................",
"......####............aaaa......",
"....########........aaaaaaaa....",
"...##########......aaaaaaaaaa...",
"..############.....aaaaaaaaaa...",
"..##########.......aaaaaaaaaa...",
".#########.........aaaaaaaaaa...",
".#######...........aaaaaaaaaa...",
".#######...........aaaaaaaaaa...",
".#########.........aaaaaaaaaa...",
"..##########.......aaaaaaaaaa...",
"..############.....aaaaaaaaaa...",
"...##########......aaaaaaaaaa...",
"....########.......aa.aaaa.aa...",
"......####.........a...aa...a...",
"................................",
"................................",
"......bbbb............cccc......",
"....bbbbbbbb........cccccccc....",
"...bbbbbbbbbb......cccccccccc...",
"...bbbbbbbbbb......cccccccccc...",
"...bbbbbbbbbb......cccccccccc...",
"...bbbbbbbbbb......cccccccccc...",
"...bbbbbbbbbb......cccccccccc...",
"...bbbbbbbbbb......cccccccccc...",
"...bbbbbbbbbb......cccccccccc...",
"...bbbbbbbbbb......cccccccccc...",
"...bbbbbbbbbb......cccccccccc...",
"...bbbbbbbbbb......cccccccccc...",
"...bb.bbbb.bb......cc.cccc.cc...",
"...b...bb...b......c...cc...c...",
"................................"};
